<svg version="1.1" viewBox="0.0 0.0 384.0 154.55905511811022" fill="none" stroke="none" stroke-linecap="square" stroke-miterlimit="10" xmlns:xlink="http://www.w3.org/1999/xlink" xmlns="http://www.w3.org/2000/svg"><clipPath id="p.0"><path d="m0 0l384.0 0l0 154.55905l-384.0 0l0 -154.55905z" clip-rule="nonzero"/></clipPath><g clip-path="url(#p.0)"><path fill="#000000" fill-opacity="0.0" d="m0 0l384.0 0l0 154.55905l-384.0 0z" fill-rule="evenodd"/><path fill="#000000" fill-opacity="0.0" d="m109.343834 49.33858l266.64566 0" fill-rule="evenodd"/><path stroke="#d9d9d9" stroke-width="2.0" stroke-linejoin="round" stroke-linecap="butt" d="m116.923836 49.33858l259.06567 0" fill-rule="evenodd"/><path fill="#d9d9d9" stroke="#d9d9d9" stroke-width="2.0" stroke-linecap="butt" d="m110.343834 49.33858c0 -1.8170166 1.4729843 -3.289997 3.290001 -3.289997c1.8170166 0 3.2899933 1.4729805 3.2899933 3.289997c0 1.8170166 -1.4729767 3.290001 -3.2899933 3.290001c-1.8170166 0 -3.290001 -1.4729843 -3.290001 -3.290001z" fill-rule="nonzero"/><path fill="#d9d9d9" d="m372.85828 21.448818l11.118103 0l0 111.52756l-11.118103 0z" fill-rule="evenodd"/><path stroke="#d9d9d9" stroke-width="2.0" stroke-linejoin="round" stroke-linecap="butt" d="m372.85828 21.448818l11.118103 0l0 111.52756l-11.118103 0z" fill-rule="evenodd"/><path fill="#d9d9d9" d="m361.74014 21.517061l4.063019 0l0 111.52756l-4.063019 0z" fill-rule="evenodd"/><path stroke="#d9d9d9" stroke-width="2.0" stroke-linejoin="round" stroke-linecap="butt" d="m361.74014 21.517061l4.063019 0l0 111.52756l-4.063019 0z" fill-rule="evenodd"/><path fill="#000000" fill-opacity="0.0" d="m109.33071 77.2126l274.64566 0" fill-rule="evenodd"/><path stroke="#00ffff" stroke-width="4.0" stroke-linejoin="round" stroke-linecap="butt" d="m124.49071 77.2126l245.77733 0" fill-rule="evenodd"/><path fill="#00ffff" stroke="#00ffff" stroke-width="4.0" stroke-linecap="butt" d="m111.33071 77.2126c0 -3.6340332 2.945961 -6.580002 6.579994 -6.580002c3.6340332 0 6.580002 2.9459686 6.580002 6.580002c0 3.6340332 -2.9459686 6.579994 -6.580002 6.579994c-3.6340332 0 -6.579994 -2.945961 -6.579994 -6.579994z" fill-rule="nonzero"/><path fill="#00ffff" stroke="#00ffff" stroke-width="4.0" stroke-linecap="butt" d="m370.26804 77.2126l-4.498352 4.498329l12.3591 -4.498329l-12.3591 -4.498337z" fill-rule="evenodd"/><path fill="#000000" fill-opacity="0.0" d="m109.343834 105.08662l266.64566 0" fill-rule="evenodd"/><path stroke="#d9d9d9" stroke-width="2.0" stroke-linejoin="round" stroke-linecap="butt" d="m116.923836 105.08662l259.06567 0" fill-rule="evenodd"/><path fill="#d9d9d9" stroke="#d9d9d9" stroke-width="2.0" stroke-linecap="butt" d="m110.343834 105.08662c0 -1.8170166 1.4729843 -3.290001 3.290001 -3.290001c1.8170166 0 3.2899933 1.4729843 3.2899933 3.290001c0 1.8170166 -1.4729767 3.290001 -3.2899933 3.290001c-1.8170166 0 -3.290001 -1.4729843 -3.290001 -3.290001z" fill-rule="nonzero"/><path fill="#000000" fill-opacity="0.0" d="m109.343834 132.96063l266.64566 0" fill-rule="evenodd"/><path stroke="#d9d9d9" stroke-width="2.0" stroke-linejoin="round" stroke-linecap="butt" d="m116.923836 132.96063l259.06567 0" fill-rule="evenodd"/><path fill="#d9d9d9" stroke="#d9d9d9" stroke-width="2.0" stroke-linecap="butt" d="m110.343834 132.96063c0 -1.8170166 1.4729843 -3.2900085 3.290001 -3.2900085c1.8170166 0 3.2899933 1.472992 3.2899933 3.2900085c0 1.8170166 -1.4729767 3.2899933 -3.2899933 3.2899933c-1.8170166 0 -3.290001 -1.4729767 -3.290001 -3.2899933z" fill-rule="nonzero"/><path fill="#000000" fill-opacity="0.0" d="m109.343834 21.464567l266.64566 0" fill-rule="evenodd"/><path stroke="#d9d9d9" stroke-width="2.0" stroke-linejoin="round" stroke-linecap="butt" d="m116.923836 21.464567l259.06567 0" fill-rule="evenodd"/><path fill="#d9d9d9" stroke="#d9d9d9" stroke-width="2.0" stroke-linecap="butt" d="m110.343834 21.464567c0 -1.8170166 1.4729843 -3.290001 3.290001 -3.290001c1.8170166 0 3.2899933 1.4729843 3.2899933 3.290001c0 1.8170166 -1.4729767 3.289999 -3.2899933 3.289999c-1.8170166 0 -3.290001 -1.4729824 -3.290001 -3.289999z" fill-rule="nonzero"/><path fill="#000000" fill-opacity="0.0" d="m50.51968 77.16549l61.574802 -55.716537" fill-rule="evenodd"/><path stroke="#d9d9d9" stroke-width="2.0" stroke-linejoin="round" stroke-linecap="butt" d="m50.51968 77.16549l61.574802 -55.716537" fill-rule="evenodd"/><path fill="#000000" fill-opacity="0.0" d="m50.51968 77.16549l61.574802 -27.842518" fill-rule="evenodd"/><path stroke="#d9d9d9" stroke-width="2.0" stroke-linejoin="round" stroke-linecap="butt" d="m50.51968 77.16549l61.574802 -27.842518" fill-rule="evenodd"/><path fill="#000000" fill-opacity="0.0" d="m112.11023 105.08641l-61.574802 -27.90551" fill-rule="evenodd"/><path stroke="#d9d9d9" stroke-width="2.0" stroke-linejoin="round" stroke-linecap="butt" d="m112.11023 105.08641l-61.574802 -27.90551" fill-rule="evenodd"/><path fill="#000000" fill-opacity="0.0" d="m53.192818 77.16514l64.8189 0.03149414" fill-rule="evenodd"/><path stroke="#00ffff" stroke-width="4.0" stroke-linejoin="round" stroke-linecap="butt" d="m53.192818 77.16514l64.8189 0.03149414" fill-rule="evenodd"/><path fill="#000000" fill-opacity="0.0" d="m112.11023 132.96063l-61.574802 -55.779533" fill-rule="evenodd"/><path stroke="#d9d9d9" stroke-width="2.0" stroke-linejoin="round" stroke-linecap="butt" d="m112.11023 132.96063l-61.574802 -55.779533" fill-rule="evenodd"/><path fill="#000000" fill-opacity="0.0" d="m0.15746011 77.20473l55.52756 -0.03150177" fill-rule="evenodd"/><path stroke="#d9d9d9" stroke-width="2.0" stroke-linejoin="round" stroke-linecap="butt" d="m7.7374587 77.200424l40.367565 -0.022895813" fill-rule="evenodd"/><path fill="#d9d9d9" stroke="#d9d9d9" stroke-width="2.0" stroke-linecap="butt" d="m1.15746 77.204155c-0.0010306835 -1.8170166 1.4711168 -3.2908325 3.288133 -3.2918625c1.8170166 -0.0010299683 3.290835 1.4711151 3.2918658 3.2881317c0.0010304451 1.8170166 -1.471117 3.2908325 -3.2881331 3.2918625c-1.8170166 0.0010375977 -3.290835 -1.4711151 -3.2918656 -3.2881317z" fill-rule="nonzero"/><path fill="#d9d9d9" stroke="#d9d9d9" stroke-width="2.0" stroke-linecap="butt" d="m54.68502 77.1738c0.0010299683 1.8170166 -1.4711189 3.2908325 -3.2881355 3.2918625c-1.8170166 0.0010299683 -3.2908325 -1.4711151 -3.2918663 -3.2881317c-0.0010299683 -1.8170166 1.4711189 -3.2908325 3.2881355 -3.2918625c1.8170166 -0.0010375977 3.2908325 1.4711151 3.2918663 3.2881317z" fill-rule="nonzero"/><path fill="#ffffff" d="m204.07826 32.084347c-0.32531738 0 -0.6051941 0.13563156 -0.83961487 0.4068985c-0.23442078 0.26584244 -0.35162354 0.580513 -0.35162354 0.9440117l0 7.552082c0 0.3635025 0.11720276 0.6808853 0.35162354 0.95214844c0.23442078 0.26584625 0.5142975 0.39876556 0.83961487 0.39876556l8.066055 0l0 14.493816l-8.066055 0c-0.32531738 0 -0.6051941 0.13563156 -0.83961487 0.4068985c-0.23442078 0.26584244 -0.35162354 0.5805092 -0.35162354 0.9440117l0 7.552082c0 0.368927 0.11720276 0.6863098 0.35162354 0.95214844c0.23442078 0.26583862 0.5142975 0.39876556 0.83961487 0.39876556l27.951294 0c0.32052612 0 0.5980072 -0.13292694 0.832428 -0.39876556c0.23921204 -0.26583862 0.35881042 -0.58322144 0.35881042 -0.95214844l0 -7.552082c0 -0.3634987 -0.11959839 -0.67816544 -0.35881042 -0.9440117c-0.23442078 -0.27126694 -0.5118866 -0.4068985 -0.832428 -0.4068985l-7.9799347 0l0 -14.493816l7.9799347 0c0.32052612 0 0.5980072 -0.13291931 0.832428 -0.39876556c0.23921204 -0.27126312 0.35881042 -0.58864594 0.35881042 -0.95214844l0 -7.552082c0 -0.3634987 -0.11959839 -0.67816925 -0.35881042 -0.9440117c-0.23442078 -0.27126694 -0.5118866 -0.4068985 -0.832428 -0.4068985z" fill-rule="evenodd"/><path fill="#ffffff" d="m255.9722 31.587927c-4.7362976 0 -8.632965 1.1664486 -11.690033 3.4993496c-1.5548401 1.1990013 -2.7676086 2.7832031 -3.638321 4.7526016c-0.8659363 1.9639778 -1.2988892 4.2290573 -1.2988892 6.79525l0 5.9000664c0 5.132374 1.521347 8.924694 4.5640564 11.376953c3.0427094 2.4468307 7.061371 3.67025 12.056015 3.67025c4.99942 0 9.020477 -1.2234192 12.063171 -3.67025c3.0427246 -2.452259 4.5640564 -6.2120247 4.5640564 -11.279297l0 -5.2978516c0 -0.3635025 -0.1171875 -0.67817307 -0.35162354 -0.9440117c-0.23440552 -0.27126694 -0.5142822 -0.4069023 -0.8395996 -0.4069023l-12.787994 0c-0.32052612 0 -0.60040283 0.13563538 -0.8396301 0.4069023c-0.23440552 0.26584244 -0.35162354 0.580513 -0.35162354 0.9440117l0 5.550129c0 0.3689232 0.11721802 0.686306 0.35162354 0.95214844c0.2392273 0.26583862 0.519104 0.39876175 0.8396301 0.39876175l2.7341309 0c-0.028717041 0.9657097 -0.47601318 1.8066406 -1.3419495 2.522789c-0.8659363 0.71614456 -2.1002197 1.0742188 -3.7029114 1.0742188c-1.6026917 0 -2.8465576 -0.3743515 -3.7316284 -1.1230469c-0.88027954 -0.7486992 -1.3204193 -1.7903671 -1.3204193 -3.125l0 -8.496094c0 -1.1013451 0.4473114 -2.001957 1.3419495 -2.7018242c0.89941406 -0.69987106 2.133728 -1.0498047 3.7029266 -1.0498047c1.5739746 0 2.8178406 0.6483307 3.731598 1.9449883c0.26315308 0.36891937 0.6889343 0.5533829 1.2773743 0.5533829l9.967743 0c0.26312256 0 0.49035645 -0.10850525 0.6817322 -0.32551956c0.19137573 -0.21701431 0.28704834 -0.47472 0.28704834 -0.77311325c0 -1.4322929 -0.7200012 -3.0815964 -2.1600342 -4.947918c-0.822876 -1.0687904 -1.8155823 -2.0616302 -2.978119 -2.9785156c-1.1625366 -0.91688156 -2.722168 -1.6818542 -4.678894 -2.2949219c-1.9519043 -0.6184883 -4.1023865 -0.92773247 -6.4513855 -0.92773247z" fill-rule="evenodd"/><path fill="#ffffff" d="m278.32172 32.084347c-0.32052612 0 -0.60040283 0.13563156 -0.8395996 0.4068985c-0.23443604 0.26584244 -0.35165405 0.580513 -0.35165405 0.9440117l0 32.299805c0 0.40148163 0.11721802 0.7269974 0.35165405 0.9765625c0.23919678 0.24956512 0.5190735 0.3743515 0.8395996 0.3743515l9.085083 0c0.32052612 0 0.59799194 -0.13292694 0.832428 -0.39876556c0.23919678 -0.26583862 0.35882568 -0.58322144 0.35882568 -0.95214844l0 -10.652668l8.819519 0l0 10.652668c0 0.368927 0.11721802 0.6863098 0.35165405 0.95214844c0.23440552 0.26583862 0.51190186 0.39876556 0.832428 0.39876556l9.085083 0c0.32531738 0 0.6051941 -0.13292694 0.8395996 -0.39876556c0.23443604 -0.26583862 0.35162354 -0.58322144 0.35162354 -0.95214844l0 -32.299805c0 -0.3634987 -0.1171875 -0.67816925 -0.35162354 -0.9440117c-0.23440552 -0.27126694 -0.5142822 -0.4068985 -0.8395996 -0.4068985l-9.085083 0c-0.32052612 0 -0.59802246 0.13563156 -0.832428 0.4068985c-0.23443604 0.26584244 -0.35165405 0.580513 -0.35165405 0.9440117l0 10.253906l-8.819519 0l0 -10.253906c0 -0.3634987 -0.119628906 -0.67816925 -0.35882568 -0.9440117c-0.23440552 -0.27126694 -0.51190186 -0.4068985 -0.832428 -0.4068985z" fill-rule="evenodd"/><path fill="#ffffff" d="m315.2748 32.084347c-0.32531738 0 -0.6051941 0.13563156 -0.8395996 0.4068985c-0.23443604 0.26584244 -0.35165405 0.580513 -0.35165405 0.9440117l0 8.048504c0 0.3689232 0.11721802 0.686306 0.35165405 0.95214844c0.23440552 0.26584244 0.5142822 0.39876175 0.8395996 0.39876175l9.472595 0l0 22.90039c0 0.368927 0.1171875 0.6863098 0.35162354 0.95214844c0.23919678 0.26583862 0.5190735 0.39876556 0.8395996 0.39876556l9.085083 0c0.32531738 0 0.6051941 -0.13292694 0.8395996 -0.39876556c0.23443604 -0.26583862 0.35165405 -0.58322144 0.35165405 -0.95214844l0 -22.90039l9.479736 0c0.32055664 0 0.59802246 -0.13291931 0.8324585 -0.39876175c0.23919678 -0.26584244 0.35879517 -0.58322525 0.35879517 -0.95214844l0 -8.048504c0 -0.3634987 -0.11959839 -0.67816925 -0.35879517 -0.9440117c-0.23443604 -0.27126694 -0.51190186 -0.4068985 -0.8324585 -0.4068985z" fill-rule="evenodd"/><path stroke="#000000" stroke-width="1.0" stroke-linejoin="round" stroke-linecap="butt" d="m204.07826 32.084347c-0.32531738 0 -0.6051941 0.13563156 -0.83961487 0.4068985c-0.23442078 0.26584244 -0.35162354 0.580513 -0.35162354 0.9440117l0 7.552082c0 0.3635025 0.11720276 0.6808853 0.35162354 0.95214844c0.23442078 0.26584625 0.5142975 0.39876556 0.83961487 0.39876556l8.066055 0l0 14.493816l-8.066055 0c-0.32531738 0 -0.6051941 0.13563156 -0.83961487 0.4068985c-0.23442078 0.26584244 -0.35162354 0.5805092 -0.35162354 0.9440117l0 7.552082c0 0.368927 0.11720276 0.6863098 0.35162354 0.95214844c0.23442078 0.26583862 0.5142975 0.39876556 0.83961487 0.39876556l27.951294 0c0.32052612 0 0.5980072 -0.13292694 0.832428 -0.39876556c0.23921204 -0.26583862 0.35881042 -0.58322144 0.35881042 -0.95214844l0 -7.552082c0 -0.3634987 -0.11959839 -0.67816544 -0.35881042 -0.9440117c-0.23442078 -0.27126694 -0.5118866 -0.4068985 -0.832428 -0.4068985l-7.9799347 0l0 -14.493816l7.9799347 0c0.32052612 0 0.5980072 -0.13291931 0.832428 -0.39876556c0.23921204 -0.27126312 0.35881042 -0.58864594 0.35881042 -0.95214844l0 -7.552082c0 -0.3634987 -0.11959839 -0.67816925 -0.35881042 -0.9440117c-0.23442078 -0.27126694 -0.5118866 -0.4068985 -0.832428 -0.4068985z" fill-rule="evenodd"/><path stroke="#000000" stroke-width="1.0" stroke-linejoin="round" stroke-linecap="butt" d="m255.9722 31.587927c-4.7362976 0 -8.632965 1.1664486 -11.690033 3.4993496c-1.5548401 1.1990013 -2.7676086 2.7832031 -3.638321 4.7526016c-0.8659363 1.9639778 -1.2988892 4.2290573 -1.2988892 6.79525l0 5.9000664c0 5.132374 1.521347 8.924694 4.5640564 11.376953c3.0427094 2.4468307 7.061371 3.67025 12.056015 3.67025c4.99942 0 9.020477 -1.2234192 12.063171 -3.67025c3.0427246 -2.452259 4.5640564 -6.2120247 4.5640564 -11.279297l0 -5.2978516c0 -0.3635025 -0.1171875 -0.67817307 -0.35162354 -0.9440117c-0.23440552 -0.27126694 -0.5142822 -0.4069023 -0.8395996 -0.4069023l-12.787994 0c-0.32052612 0 -0.60040283 0.13563538 -0.8396301 0.4069023c-0.23440552 0.26584244 -0.35162354 0.580513 -0.35162354 0.9440117l0 5.550129c0 0.3689232 0.11721802 0.686306 0.35162354 0.95214844c0.2392273 0.26583862 0.519104 0.39876175 0.8396301 0.39876175l2.7341309 0c-0.028717041 0.9657097 -0.47601318 1.8066406 -1.3419495 2.522789c-0.8659363 0.71614456 -2.1002197 1.0742188 -3.7029114 1.0742188c-1.6026917 0 -2.8465576 -0.3743515 -3.7316284 -1.1230469c-0.88027954 -0.7486992 -1.3204193 -1.7903671 -1.3204193 -3.125l0 -8.496094c0 -1.1013451 0.4473114 -2.001957 1.3419495 -2.7018242c0.89941406 -0.69987106 2.133728 -1.0498047 3.7029266 -1.0498047c1.5739746 0 2.8178406 0.6483307 3.731598 1.9449883c0.26315308 0.36891937 0.6889343 0.5533829 1.2773743 0.5533829l9.967743 0c0.26312256 0 0.49035645 -0.10850525 0.6817322 -0.32551956c0.19137573 -0.21701431 0.28704834 -0.47472 0.28704834 -0.77311325c0 -1.4322929 -0.7200012 -3.0815964 -2.1600342 -4.947918c-0.822876 -1.0687904 -1.8155823 -2.0616302 -2.978119 -2.9785156c-1.1625366 -0.91688156 -2.722168 -1.6818542 -4.678894 -2.2949219c-1.9519043 -0.6184883 -4.1023865 -0.92773247 -6.4513855 -0.92773247z" fill-rule="evenodd"/><path stroke="#000000" stroke-width="1.0" stroke-linejoin="round" stroke-linecap="butt" d="m278.32172 32.084347c-0.32052612 0 -0.60040283 0.13563156 -0.8395996 0.4068985c-0.23443604 0.26584244 -0.35165405 0.580513 -0.35165405 0.9440117l0 32.299805c0 0.40148163 0.11721802 0.7269974 0.35165405 0.9765625c0.23919678 0.24956512 0.5190735 0.3743515 0.8395996 0.3743515l9.085083 0c0.32052612 0 0.59799194 -0.13292694 0.832428 -0.39876556c0.23919678 -0.26583862 0.35882568 -0.58322144 0.35882568 -0.95214844l0 -10.652668l8.819519 0l0 10.652668c0 0.368927 0.11721802 0.6863098 0.35165405 0.95214844c0.23440552 0.26583862 0.51190186 0.39876556 0.832428 0.39876556l9.085083 0c0.32531738 0 0.6051941 -0.13292694 0.8395996 -0.39876556c0.23443604 -0.26583862 0.35162354 -0.58322144 0.35162354 -0.95214844l0 -32.299805c0 -0.3634987 -0.1171875 -0.67816925 -0.35162354 -0.9440117c-0.23440552 -0.27126694 -0.5142822 -0.4068985 -0.8395996 -0.4068985l-9.085083 0c-0.32052612 0 -0.59802246 0.13563156 -0.832428 0.4068985c-0.23443604 0.26584244 -0.35165405 0.580513 -0.35165405 0.9440117l0 10.253906l-8.819519 0l0 -10.253906c0 -0.3634987 -0.119628906 -0.67816925 -0.35882568 -0.9440117c-0.23440552 -0.27126694 -0.51190186 -0.4068985 -0.832428 -0.4068985z" fill-rule="evenodd"/><path stroke="#000000" stroke-width="1.0" stroke-linejoin="round" stroke-linecap="butt" d="m315.2748 32.084347c-0.32531738 0 -0.6051941 0.13563156 -0.8395996 0.4068985c-0.23443604 0.26584244 -0.35165405 0.580513 -0.35165405 0.9440117l0 8.048504c0 0.3689232 0.11721802 0.686306 0.35165405 0.95214844c0.23440552 0.26584244 0.5142822 0.39876175 0.8395996 0.39876175l9.472595 0l0 22.90039c0 0.368927 0.1171875 0.6863098 0.35162354 0.95214844c0.23919678 0.26583862 0.5190735 0.39876556 0.8395996 0.39876556l9.085083 0c0.32531738 0 0.6051941 -0.13292694 0.8395996 -0.39876556c0.23443604 -0.26583862 0.35165405 -0.58322144 0.35165405 -0.95214844l0 -22.90039l9.479736 0c0.32055664 0 0.59802246 -0.13291931 0.8324585 -0.39876175c0.23919678 -0.26584244 0.35879517 -0.58322525 0.35879517 -0.95214844l0 -8.048504c0 -0.3634987 -0.11959839 -0.67816925 -0.35879517 -0.9440117c-0.23443604 -0.27126694 -0.51190186 -0.4068985 -0.8324585 -0.4068985z" fill-rule="evenodd"/><path fill="#ffffff" d="m205.84204 87.83596c-0.32531738 0 -0.60517883 0.13562775 -0.83961487 0.4068985c-0.23442078 0.26583862 -0.35162354 0.580513 -0.35162354 0.9440079l0 32.299805c0 0.368927 0.11720276 0.6863098 0.35162354 0.95214844c0.23443604 0.26584625 0.5142975 0.39876556 0.83961487 0.39876556l25.7482 0c0.32531738 0 0.6051941 -0.13291931 0.83961487 -0.39876556c0.23442078 -0.26583862 0.3516388 -0.58322144 0.3516388 -0.95214844l0 -7.5520782c0 -0.36349487 -0.11721802 -0.67816925 -0.3516388 -0.9440155c-0.23442078 -0.27126312 -0.5142975 -0.4068985 -0.83961487 -0.4068985l-15.034134 0l0 -23.396812c0 -0.36349487 -0.11721802 -0.6781616 -0.3516388 -0.9440079c-0.23442078 -0.27127075 -0.5142822 -0.4068985 -0.83961487 -0.4068985z" fill-rule="evenodd"/><path fill="#ffffff" d="m240.7212 87.83596c-0.32531738 0 -0.6051941 0.13562775 -0.83961487 0.4068985c-0.23442078 0.26583862 -0.35162354 0.580513 -0.35162354 0.9440079l0 7.552086c0 0.3635025 0.11720276 0.6808853 0.35162354 0.95214844c0.23442078 0.26584625 0.5142975 0.39876556 0.83961487 0.39876556l8.066055 0l0 14.493813l-8.066055 0c-0.32531738 0 -0.6051941 0.13563538 -0.83961487 0.4068985c-0.23442078 0.26584625 -0.35162354 0.580513 -0.35162354 0.9440155l0 7.5520782c0 0.368927 0.11720276 0.6863098 0.35162354 0.95214844c0.23442078 0.26584625 0.5142975 0.39876556 0.83961487 0.39876556l27.951279 0c0.32055664 0 0.59802246 -0.13291931 0.8324585 -0.39876556c0.23919678 -0.26583862 0.35879517 -0.58322144 0.35879517 -0.95214844l0 -7.5520782c0 -0.36349487 -0.11959839 -0.67816925 -0.35879517 -0.9440155c-0.23443604 -0.27126312 -0.51190186 -0.4068985 -0.8324585 -0.4068985l-7.9799194 0l0 -14.493813l7.9799194 0c0.32055664 0 0.59802246 -0.13291931 0.8324585 -0.39876556c0.23919678 -0.27126312 0.35879517 -0.58864594 0.35879517 -0.95214844l0 -7.552086c0 -0.36349487 -0.11959839 -0.6781616 -0.35879517 -0.9440079c-0.23443604 -0.27127075 -0.51190186 -0.4068985 -0.8324585 -0.4068985z" fill-rule="evenodd"/><path fill="#ffffff" d="m278.1049 87.83596c-0.32055664 0 -0.60043335 0.13562775 -0.8396301 0.4068985c-0.23443604 0.26583862 -0.35162354 0.580513 -0.35162354 0.9440079l0 32.299805c0 0.368927 0.1171875 0.6863098 0.35162354 0.95214844c0.23919678 0.26584625 0.5190735 0.39876556 0.8396301 0.39876556l8.202393 0c0.32531738 0 0.6051636 -0.13291931 0.8395996 -0.39876556c0.23443604 -0.26583862 0.35162354 -0.58322144 0.35162354 -0.95214844l0 -13.598633l9.608948 13.899742c0.4736328 0.69986725 1.0620728 1.0498047 1.7653503 1.0498047l7.097229 0c0.3253479 0 0.6051941 -0.13291931 0.8396301 -0.39876556c0.23443604 -0.26583862 0.35162354 -0.58322144 0.35162354 -0.95214844l0 -32.299805c0 -0.36349487 -0.1171875 -0.6781616 -0.35162354 -0.9440079c-0.23443604 -0.27127075 -0.5142822 -0.4068985 -0.8396301 -0.4068985l-8.202393 0c-0.32052612 0 -0.59799194 0.13562775 -0.832428 0.4068985c-0.23440552 0.26583862 -0.35162354 0.580513 -0.35162354 0.9440079l0 14.697266l-9.616119 -15.047195c-0.4401245 -0.66732025 -1.0118408 -1.0009766 -1.7150879 -1.0009766z" fill-rule="evenodd"/><path fill="#ffffff" d="m316.0698 87.83596c-0.32531738 0 -0.6051941 0.13562775 -0.8395996 0.4068985c-0.23443604 0.26583862 -0.35162354 0.580513 -0.35162354 0.9440079l0 32.299805c0 0.368927 0.1171875 0.6863098 0.35162354 0.95214844c0.23440552 0.26584625 0.5142822 0.39876556 0.8395996 0.39876556l27.865173 0c0.32055664 0 0.59802246 -0.13291931 0.8324585 -0.39876556c0.23919678 -0.26583862 0.35879517 -0.58322144 0.35879517 -0.95214844l0 -7.0475235c0 -0.368927 -0.11959839 -0.6863098 -0.35879517 -0.95214844c-0.23443604 -0.26583862 -0.51190186 -0.39876556 -0.8324585 -0.39876556l-17.596008 0l0 -3.149414l14.725555 0c0.32531738 0 0.6051636 -0.13291931 0.8395996 -0.39875793c0.23443604 -0.26583862 0.35162354 -0.58322144 0.35162354 -0.95214844l0 -6.502281c0 -0.36349487 -0.1171875 -0.67816925 -0.35162354 -0.9440079c-0.23443604 -0.27127075 -0.5142822 -0.40690613 -0.8395996 -0.40690613l-14.725555 0l0 -3.149414l17.151093 0c0.32531738 0 0.6051941 -0.13291931 0.8396301 -0.39875793c0.23440552 -0.26584625 0.35162354 -0.58322906 0.35162354 -0.95214844l0 -7.047531c0 -0.36349487 -0.11721802 -0.6781616 -0.35162354 -0.9440079c-0.23443604 -0.27127075 -0.51431274 -0.4068985 -0.8396301 -0.4068985z" fill-rule="evenodd"/><path stroke="#000000" stroke-width="1.0" stroke-linejoin="round" stroke-linecap="butt" d="m205.84204 87.83596c-0.32531738 0 -0.60517883 0.13562775 -0.83961487 0.4068985c-0.23442078 0.26583862 -0.35162354 0.580513 -0.35162354 0.9440079l0 32.299805c0 0.368927 0.11720276 0.6863098 0.35162354 0.95214844c0.23443604 0.26584625 0.5142975 0.39876556 0.83961487 0.39876556l25.7482 0c0.32531738 0 0.6051941 -0.13291931 0.83961487 -0.39876556c0.23442078 -0.26583862 0.3516388 -0.58322144 0.3516388 -0.95214844l0 -7.5520782c0 -0.36349487 -0.11721802 -0.67816925 -0.3516388 -0.9440155c-0.23442078 -0.27126312 -0.5142975 -0.4068985 -0.83961487 -0.4068985l-15.034134 0l0 -23.396812c0 -0.36349487 -0.11721802 -0.6781616 -0.3516388 -0.9440079c-0.23442078 -0.27127075 -0.5142822 -0.4068985 -0.83961487 -0.4068985z" fill-rule="evenodd"/><path stroke="#000000" stroke-width="1.0" stroke-linejoin="round" stroke-linecap="butt" d="m240.7212 87.83596c-0.32531738 0 -0.6051941 0.13562775 -0.83961487 0.4068985c-0.23442078 0.26583862 -0.35162354 0.580513 -0.35162354 0.9440079l0 7.552086c0 0.3635025 0.11720276 0.6808853 0.35162354 0.95214844c0.23442078 0.26584625 0.5142975 0.39876556 0.83961487 0.39876556l8.066055 0l0 14.493813l-8.066055 0c-0.32531738 0 -0.6051941 0.13563538 -0.83961487 0.4068985c-0.23442078 0.26584625 -0.35162354 0.580513 -0.35162354 0.9440155l0 7.5520782c0 0.368927 0.11720276 0.6863098 0.35162354 0.95214844c0.23442078 0.26584625 0.5142975 0.39876556 0.83961487 0.39876556l27.951279 0c0.32055664 0 0.59802246 -0.13291931 0.8324585 -0.39876556c0.23919678 -0.26583862 0.35879517 -0.58322144 0.35879517 -0.95214844l0 -7.5520782c0 -0.36349487 -0.11959839 -0.67816925 -0.35879517 -0.9440155c-0.23443604 -0.27126312 -0.51190186 -0.4068985 -0.8324585 -0.4068985l-7.9799194 0l0 -14.493813l7.9799194 0c0.32055664 0 0.59802246 -0.13291931 0.8324585 -0.39876556c0.23919678 -0.27126312 0.35879517 -0.58864594 0.35879517 -0.95214844l0 -7.552086c0 -0.36349487 -0.11959839 -0.6781616 -0.35879517 -0.9440079c-0.23443604 -0.27127075 -0.51190186 -0.4068985 -0.8324585 -0.4068985z" fill-rule="evenodd"/><path stroke="#000000" stroke-width="1.0" stroke-linejoin="round" stroke-linecap="butt" d="m278.1049 87.83596c-0.32055664 0 -0.60043335 0.13562775 -0.8396301 0.4068985c-0.23443604 0.26583862 -0.35162354 0.580513 -0.35162354 0.9440079l0 32.299805c0 0.368927 0.1171875 0.6863098 0.35162354 0.95214844c0.23919678 0.26584625 0.5190735 0.39876556 0.8396301 0.39876556l8.202393 0c0.32531738 0 0.6051636 -0.13291931 0.8395996 -0.39876556c0.23443604 -0.26583862 0.35162354 -0.58322144 0.35162354 -0.95214844l0 -13.598633l9.608948 13.899742c0.4736328 0.69986725 1.0620728 1.0498047 1.7653503 1.0498047l7.097229 0c0.3253479 0 0.6051941 -0.13291931 0.8396301 -0.39876556c0.23443604 -0.26583862 0.35162354 -0.58322144 0.35162354 -0.95214844l0 -32.299805c0 -0.36349487 -0.1171875 -0.6781616 -0.35162354 -0.9440079c-0.23443604 -0.27127075 -0.5142822 -0.4068985 -0.8396301 -0.4068985l-8.202393 0c-0.32052612 0 -0.59799194 0.13562775 -0.832428 0.4068985c-0.23440552 0.26583862 -0.35162354 0.580513 -0.35162354 0.9440079l0 14.697266l-9.616119 -15.047195c-0.4401245 -0.66732025 -1.0118408 -1.0009766 -1.7150879 -1.0009766z" fill-rule="evenodd"/><path stroke="#000000" stroke-width="1.0" stroke-linejoin="round" stroke-linecap="butt" d="m316.0698 87.83596c-0.32531738 0 -0.6051941 0.13562775 -0.8395996 0.4068985c-0.23443604 0.26583862 -0.35162354 0.580513 -0.35162354 0.9440079l0 32.299805c0 0.368927 0.1171875 0.6863098 0.35162354 0.95214844c0.23440552 0.26584625 0.5142822 0.39876556 0.8395996 0.39876556l27.865173 0c0.32055664 0 0.59802246 -0.13291931 0.8324585 -0.39876556c0.23919678 -0.26583862 0.35879517 -0.58322144 0.35879517 -0.95214844l0 -7.0475235c0 -0.368927 -0.11959839 -0.6863098 -0.35879517 -0.95214844c-0.23443604 -0.26583862 -0.51190186 -0.39876556 -0.8324585 -0.39876556l-17.596008 0l0 -3.149414l14.725555 0c0.32531738 0 0.6051636 -0.13291931 0.8395996 -0.39875793c0.23443604 -0.26583862 0.35162354 -0.58322144 0.35162354 -0.95214844l0 -6.502281c0 -0.36349487 -0.1171875 -0.67816925 -0.35162354 -0.9440079c-0.23443604 -0.27127075 -0.5142822 -0.40690613 -0.8395996 -0.40690613l-14.725555 0l0 -3.149414l17.151093 0c0.32531738 0 0.6051941 -0.13291931 0.8396301 -0.39875793c0.23440552 -0.26584625 0.35162354 -0.58322906 0.35162354 -0.95214844l0 -7.047531c0 -0.36349487 -0.11721802 -0.6781616 -0.35162354 -0.9440079c-0.23443604 -0.27127075 -0.51431274 -0.4068985 -0.8396301 -0.4068985z" fill-rule="evenodd"/><path fill="#ffffff" d="m167.75163 31.587927c-8.553726 0 -15.382111 1.8928967 -20.485138 5.678686c-5.1030273 3.7857933 -7.654541 8.751003 -7.654541 14.895634c0 10.910843 7.9375305 17.380661 23.812607 19.409462c4.9934845 0.6018448 8.330078 1.2182465 10.009781 1.8492126c1.679718 0.62125397 2.5195618 1.4657745 2.5195618 2.5335693c0 1.7278671 -2.6610565 2.5918045 -7.983185 2.5918045c-3.8706207 0 -6.5910187 -0.8056946 -8.161179 -2.417076c-0.73031616 -0.7668686 -1.6842804 -1.1502991 -2.861908 -1.1502991l-17.253525 0c-1.2871704 0 -1.9307556 0.65522766 -1.9307556 1.9656982c0 5.3680573 2.5926056 9.886742 7.7777863 13.556046c5.1943207 3.6595993 12.474579 5.489395 21.840775 5.489395c9.366211 0 16.879257 -1.9074554 22.539139 -5.7223663c5.6690216 -3.8149185 8.503525 -8.794685 8.503525 -14.939316c0 -6.1446304 -1.9490051 -10.750679 -5.8470306 -13.818138c-3.8980255 -3.067463 -10.447968 -5.1690636 -19.649857 -6.304798c-4.372711 -0.543602 -7.289383 -1.0677872 -8.75 -1.5725594c-1.4606171 -0.504776 -2.190918 -1.2036896 -2.190918 -2.0967484c0 -1.669632 1.880539 -2.5044441 5.641617 -2.5044441c2.6930237 0 4.710495 0.6552315 6.052429 1.9656982c0.73031616 0.71832657 1.6021271 1.0774956 2.6154175 1.0774956l18.088821 0c0.6116333 0 1.1000214 -0.1795845 1.4651794 -0.5387497c0.36515808 -0.3591652 0.5477295 -0.834816 0.5477295 -1.4269524c0 -4.4167557 -2.6382294 -8.605392 -7.9147034 -12.565914c-5.2673492 -3.9702263 -12.177887 -5.9553394 -20.731628 -5.9553394z" fill-rule="evenodd"/><path stroke="#000000" stroke-width="1.0" stroke-linejoin="round" stroke-linecap="butt" d="m167.75163 31.587927c-8.553726 0 -15.382111 1.8928967 -20.485138 5.678686c-5.1030273 3.7857933 -7.654541 8.751003 -7.654541 14.895634c0 10.910843 7.9375305 17.380661 23.812607 19.409462c4.9934845 0.6018448 8.330078 1.2182465 10.009781 1.8492126c1.679718 0.62125397 2.5195618 1.4657745 2.5195618 2.5335693c0 1.7278671 -2.6610565 2.5918045 -7.983185 2.5918045c-3.8706207 0 -6.5910187 -0.8056946 -8.161179 -2.417076c-0.73031616 -0.7668686 -1.6842804 -1.1502991 -2.861908 -1.1502991l-17.253525 0c-1.2871704 0 -1.9307556 0.65522766 -1.9307556 1.9656982c0 5.3680573 2.5926056 9.886742 7.7777863 13.556046c5.1943207 3.6595993 12.474579 5.489395 21.840775 5.489395c9.366211 0 16.879257 -1.9074554 22.539139 -5.7223663c5.6690216 -3.8149185 8.503525 -8.794685 8.503525 -14.939316c0 -6.1446304 -1.9490051 -10.750679 -5.8470306 -13.818138c-3.8980255 -3.067463 -10.447968 -5.1690636 -19.649857 -6.304798c-4.372711 -0.543602 -7.289383 -1.0677872 -8.75 -1.5725594c-1.4606171 -0.504776 -2.190918 -1.2036896 -2.190918 -2.0967484c0 -1.669632 1.880539 -2.5044441 5.641617 -2.5044441c2.6930237 0 4.710495 0.6552315 6.052429 1.9656982c0.73031616 0.71832657 1.6021271 1.0774956 2.6154175 1.0774956l18.088821 0c0.6116333 0 1.1000214 -0.1795845 1.4651794 -0.5387497c0.36515808 -0.3591652 0.5477295 -0.834816 0.5477295 -1.4269524c0 -4.4167557 -2.6382294 -8.605392 -7.9147034 -12.565914c-5.2673492 -3.9702263 -12.177887 -5.9553394 -20.731628 -5.9553394z" fill-rule="evenodd"/></g></svg>